# xmcd
#
# Track frame offsets:
#	150
#	19471
#	39896
#	54331
#	68574
#	89476
#	104926
#	128554
#	147805
#	161769
#	178306
#	190449
#	207610
#	228226
#
# Disc length: 3286 seconds
#
# Revision: 0
# Processed by: cddbd v1.5.2PL0 Copyright (c) Steve Scherf et al.
# Submitted via: EasyCDDAExtractor 16.0.8.2
#
DISCID=cd0cd40e
DTITLE=Μπικάκης Στέλιος - Κρητών νόστος-Σ. Μπικάκης
DYEAR=2014
DGENRE=Ποικίλη
TTITLE0=Μπικάκης Στέλιος - Φιλί, φιλί [Σ. Μπικάκης]
TTITLE1=Μπικάκης Στέλιος - Κρητών νόστος [Σ. Μπικάκης]
TTITLE2=Μπικάκης Στέλιος - Να καούν τα ξερά [Σταμ. Μεσημέρης]
TTITLE3=Σεισάκης Γιάννης - Η κάθε μου αναπνοή [Γ. Σεισάκης]
TTITLE4=Μπικάκης Στέλιος - Έλα να φύγουμε μαζί [Σ. Μπικάκης]
TTITLE5=Μπικάκης Στέλιος - Κρητικά ακρογιάλια [Η.Κατσαβίδης κ ιδίου-Σ. Μπικάκη
TTITLE5=ς]
TTITLE6=Μπικάκης Στέλιος - Ψηλά βουνά [παραδ., στ. Σ. Μπικάκης]
TTITLE7=Μπικάκης Στέλιος - Ψυχή και φως [Σ. Μπικάκης]
TTITLE8=Μπικάκης Στέλιος - Μαχαίρι είναι ο έρωτας [Σ. Μπικάκης]
TTITLE9=Μπικάκης Στέλιος - Τον καινούργιο  σου έρωτα [Κ.Μουντάκης κ ιδίου-Σ. Μ
TTITLE9=πικάκης]
TTITLE10=Μπικάκης Στέλιος - Ο άτυχος του κόσμου [Η. Κατσαβίδης-Σ. Μπικάκης]
TTITLE11=Μπικάκης Στέλιος - Το βλέμμα από τα μάτια σου [Σ. Μπικάκης]
TTITLE12=Μπικάκης Στέλιος - Το μάθημα [Αντ. Ζαχαράκης-Γ. Κουτάντος]
TTITLE13=Μπικάκης Στέλιος - Στιγμές από το στούντιο-Οι πολιτικοί [Σ. Μπικάκης]
EXTD=
EXTT0=
EXTT1=
EXTT2=
EXTT3=
EXTT4=
EXTT5=
EXTT6=
EXTT7=
EXTT8=
EXTT9=
EXTT10=
EXTT11=
EXTT12=
EXTT13=
PLAYORDER=
